<svg width="205" height="48" viewBox="0 0 205 48" fill="none" xmlns="http://www.w3.org/2000/svg">
<g filter="url(#filter0_d_1533_2)">
<path fill-rule="evenodd" clip-rule="evenodd" d="M169 43C162.678 38.8577 158.529 31.8932 158.529 24C158.529 16.1068 162.678 9.14226 169 5H12C8.134 5 4.99998 8.13401 4.99998 12V36C4.99998 39.866 8.134 43 12 43H169Z" fill="url(#paint0_radial_1533_2)"/>
</g>
<g filter="url(#filter1_bd_1533_2)">
<circle cx="181" cy="24" r="19" fill="#4BBAFF"/>
</g>
<path d="M172 28.2941V30.6471C172 31.2711 172.25 31.8696 172.696 32.3108C173.141 32.7521 173.745 33 174.375 33H188.625C189.255 33 189.859 32.7521 190.304 32.3108C190.75 31.8696 191 31.2711 191 30.6471V28.2941M175.562 21.2353L181.5 27.1176M181.5 27.1176L187.438 21.2353M181.5 27.1176V13" stroke="white" stroke-width="3" stroke-linecap="round" stroke-linejoin="round"/>
<g filter="url(#filter2_d_1533_2)">
<path d="M28.05 29V19.662H31.76C32.4787 19.662 33.0807 19.76 33.566 19.956C34.0513 20.1427 34.42 20.4273 34.672 20.81C34.924 21.1833 35.05 21.6547 35.05 22.224C35.05 22.6347 34.9567 22.9707 34.77 23.232C34.5927 23.4933 34.3733 23.7033 34.112 23.862C33.86 24.0113 33.622 24.142 33.398 24.254L33.188 23.862C33.6173 23.8993 34.0093 24.016 34.364 24.212C34.728 24.3987 35.0173 24.66 35.232 24.996C35.4467 25.332 35.554 25.7427 35.554 26.228C35.554 26.872 35.4 27.3993 35.092 27.81C34.7933 28.2207 34.3827 28.524 33.86 28.72C33.3467 28.9067 32.7633 29 32.11 29H28.05ZM29.954 27.488H32.012C32.292 27.488 32.5533 27.4507 32.796 27.376C33.0387 27.3013 33.2347 27.166 33.384 26.97C33.5333 26.774 33.608 26.5033 33.608 26.158C33.608 25.8873 33.5613 25.6727 33.468 25.514C33.3747 25.346 33.2487 25.22 33.09 25.136C32.9313 25.0427 32.754 24.982 32.558 24.954C32.3713 24.9167 32.1753 24.898 31.97 24.898H29.954V27.488ZM29.954 23.442H31.914C32.11 23.442 32.3013 23.414 32.488 23.358C32.6747 23.2927 32.824 23.1853 32.936 23.036C33.0573 22.8773 33.118 22.658 33.118 22.378C33.118 21.9207 32.992 21.608 32.74 21.44C32.488 21.272 32.166 21.188 31.774 21.188H29.954V23.442ZM41.3668 29.238C40.0135 29.238 38.9915 28.9253 38.3008 28.3C37.6102 27.6653 37.2648 26.704 37.2648 25.416V19.662H39.2388V25.36C39.2388 26.1627 39.4068 26.76 39.7428 27.152C40.0788 27.5347 40.5968 27.726 41.2968 27.726C41.9595 27.726 42.4682 27.5347 42.8228 27.152C43.1868 26.76 43.3688 26.1627 43.3688 25.36V19.662H45.1888V25.416C45.1888 26.2747 45.0302 26.9887 44.7128 27.558C44.3955 28.1273 43.9522 28.552 43.3828 28.832C42.8135 29.1027 42.1415 29.238 41.3668 29.238ZM49.0923 26.144L48.5463 24.73L52.5083 19.662H54.9023L49.0923 26.144ZM47.2863 29V19.662H49.1903V29H47.2863ZM50.9823 23.372L55.1963 29H52.7743L49.5123 24.59L50.9823 23.372ZM60.6305 29.238C59.2772 29.238 58.2552 28.9253 57.5645 28.3C56.8738 27.6653 56.5285 26.704 56.5285 25.416V19.662H58.5025V25.36C58.5025 26.1627 58.6705 26.76 59.0065 27.152C59.3425 27.5347 59.8605 27.726 60.5605 27.726C61.2232 27.726 61.7318 27.5347 62.0865 27.152C62.4505 26.76 62.6325 26.1627 62.6325 25.36V19.662H64.4525V25.416C64.4525 26.2747 64.2938 26.9887 63.9765 27.558C63.6592 28.1273 63.2158 28.552 62.6465 28.832C62.0772 29.1027 61.4052 29.238 60.6305 29.238ZM72.3778 25.794V29H70.4738V19.662H74.4218C75.4952 19.662 76.3352 19.9093 76.9418 20.404C77.5485 20.8987 77.8518 21.65 77.8518 22.658C77.8518 23.666 77.5485 24.4407 76.9418 24.982C76.3352 25.5233 75.4952 25.794 74.4218 25.794H72.3778ZM72.3778 24.268H74.1838C74.5012 24.268 74.7672 24.2307 74.9818 24.156C75.1965 24.072 75.3645 23.96 75.4858 23.82C75.6072 23.6707 75.6912 23.5073 75.7378 23.33C75.7938 23.1527 75.8218 22.9613 75.8218 22.756C75.8218 22.5413 75.7938 22.3407 75.7378 22.154C75.6912 21.9673 75.6072 21.7993 75.4858 21.65C75.3645 21.5007 75.1965 21.3887 74.9818 21.314C74.7672 21.23 74.5012 21.188 74.1838 21.188H72.3778V24.268ZM77.6729 29L81.2569 19.662H83.3149L86.7309 29H84.7709L81.7189 20.306L82.5589 20.236L79.5069 29H77.6729ZM79.5629 26.718L80.0109 25.262H84.3649L84.5189 26.718H79.5629ZM87.9875 29V19.662H89.6955L94.7915 26.634L94.2455 27.754V19.662H96.0095V29H94.4695L89.2475 22L89.7655 21.146V29H87.9875ZM98.1047 29V19.662H101.619C103.168 19.662 104.311 20.054 105.049 20.838C105.795 21.622 106.169 22.784 106.169 24.324C106.169 25.864 105.795 27.0307 105.049 27.824C104.311 28.608 103.168 29 101.619 29H98.1047ZM100.009 27.474H101.409C102.351 27.474 103.056 27.2267 103.523 26.732C103.989 26.228 104.223 25.4253 104.223 24.324C104.223 23.232 103.989 22.434 103.523 21.93C103.056 21.426 102.351 21.174 101.409 21.174H100.009V27.474ZM111.982 29.238C110.629 29.238 109.607 28.9253 108.916 28.3C108.225 27.6653 107.88 26.704 107.88 25.416V19.662H109.854V25.36C109.854 26.1627 110.022 26.76 110.358 27.152C110.694 27.5347 111.212 27.726 111.912 27.726C112.575 27.726 113.083 27.5347 113.438 27.152C113.802 26.76 113.984 26.1627 113.984 25.36V19.662H115.804V25.416C115.804 26.2747 115.645 26.9887 115.328 27.558C115.011 28.1273 114.567 28.552 113.998 28.832C113.429 29.1027 112.757 29.238 111.982 29.238ZM117.062 29L120.646 19.662H122.704L126.12 29H124.16L121.108 20.306L121.948 20.236L118.896 29H117.062ZM118.952 26.718L119.4 25.262H123.754L123.908 26.718H118.952ZM127.376 29V19.662H129.084L134.18 26.634L133.634 27.754V19.662H135.398V29H133.858L128.636 22L129.154 21.146V29H127.376Z" fill="black"/>
</g>
<defs>
<filter id="filter0_d_1533_2" x="0" y="0" width="174" height="48" filterUnits="userSpaceOnUse" color-interpolation-filters="sRGB">
<feFlood flood-opacity="0" result="BackgroundImageFix"/>
<feColorMatrix in="SourceAlpha" type="matrix" values="0 0 0 0 0 0 0 0 0 0 0 0 0 0 0 0 0 0 127 0" result="hardAlpha"/>
<feOffset/>
<feGaussianBlur stdDeviation="2.5"/>
<feComposite in2="hardAlpha" operator="out"/>
<feColorMatrix type="matrix" values="0 0 0 0 0 0 0 0 0 0 0 0 0 0 0 0 0 0 0.25 0"/>
<feBlend mode="normal" in2="BackgroundImageFix" result="effect1_dropShadow_1533_2"/>
<feBlend mode="normal" in="SourceGraphic" in2="effect1_dropShadow_1533_2" result="shape"/>
</filter>
<filter id="filter1_bd_1533_2" x="157" y="0" width="48" height="48" filterUnits="userSpaceOnUse" color-interpolation-filters="sRGB">
<feFlood flood-opacity="0" result="BackgroundImageFix"/>
<feGaussianBlur in="BackgroundImageFix" stdDeviation="2"/>
<feComposite in2="SourceAlpha" operator="in" result="effect1_backgroundBlur_1533_2"/>
<feColorMatrix in="SourceAlpha" type="matrix" values="0 0 0 0 0 0 0 0 0 0 0 0 0 0 0 0 0 0 127 0" result="hardAlpha"/>
<feOffset/>
<feGaussianBlur stdDeviation="2.5"/>
<feComposite in2="hardAlpha" operator="out"/>
<feColorMatrix type="matrix" values="0 0 0 0 0 0 0 0 0 0 0 0 0 0 0 0 0 0 0.25 0"/>
<feBlend mode="normal" in2="effect1_backgroundBlur_1533_2" result="effect2_dropShadow_1533_2"/>
<feBlend mode="normal" in="SourceGraphic" in2="effect2_dropShadow_1533_2" result="shape"/>
</filter>
<filter id="filter2_d_1533_2" x="27.15" y="19.662" width="109.148" height="11.476" filterUnits="userSpaceOnUse" color-interpolation-filters="sRGB">
<feFlood flood-opacity="0" result="BackgroundImageFix"/>
<feColorMatrix in="SourceAlpha" type="matrix" values="0 0 0 0 0 0 0 0 0 0 0 0 0 0 0 0 0 0 127 0" result="hardAlpha"/>
<feOffset dy="1"/>
<feGaussianBlur stdDeviation="0.45"/>
<feComposite in2="hardAlpha" operator="out"/>
<feColorMatrix type="matrix" values="0 0 0 0 0 0 0 0 0 0 0 0 0 0 0 0 0 0 0.4 0"/>
<feBlend mode="normal" in2="BackgroundImageFix" result="effect1_dropShadow_1533_2"/>
<feBlend mode="normal" in="SourceGraphic" in2="effect1_dropShadow_1533_2" result="shape"/>
</filter>
<radialGradient id="paint0_radial_1533_2" cx="0" cy="0" r="1" gradientUnits="userSpaceOnUse" gradientTransform="translate(86.7646 24) rotate(180) scale(82.2354 19)">
<stop stop-color="#B9B9B9"/>
<stop offset="0.659" stop-color="#DBD8D8"/>
<stop offset="1" stop-color="#EDE8E8"/>
</radialGradient>
</defs>
</svg>
